<svg width="43" height="58" viewBox="0 0 43 58" fill="none" xmlns="http://www.w3.org/2000/svg">
<g opacity="0.2">
<path d="M31.2085 14.3304C31.2085 10.3723 29.6391 6.78975 27.1058 4.19881C24.5696 1.60501 21.0666 0 17.1965 0C13.3264 0 9.82343 1.60501 7.28727 4.19881C4.75391 6.78975 3.18457 10.3723 3.18457 14.3304C3.18457 18.2885 4.75391 21.8711 7.28727 24.462C9.82343 27.0558 13.3264 28.6608 17.1965 28.6608C21.0666 28.6608 24.5696 27.0558 27.1058 24.462C29.6391 21.8711 31.2085 18.2885 31.2085 14.3304Z" fill="white"/>
<path d="M0 42.6728C0 45.5389 6.44868 48.405 17.1965 48.405C27.2794 48.405 34.393 45.5389 34.393 42.6728C34.393 36.9407 27.6462 31.2085 17.1965 31.2085C6.44868 31.2085 0 36.9407 0 42.6728Z" fill="white"/>
</g>
<circle cx="32.3274" cy="46.9763" r="9.74453" fill="#97989A" stroke="#484B4E" stroke-width="1.8561"/>
<path fill-rule="evenodd" clip-rule="evenodd" d="M32.8898 46.9835L32.89 42.8763C32.89 42.6239 32.6857 42.4187 32.4335 42.4188C32.1797 42.4188 31.9771 42.6237 31.9771 42.8764L31.9768 46.9835L27.8697 46.9837C27.6172 46.9838 27.4121 47.1881 27.4121 47.4402C27.4121 47.6941 27.6169 47.8967 27.8696 47.8967L31.9768 47.8964L31.9765 52.0036C31.9765 52.256 32.1809 52.4612 32.433 52.4611C32.6868 52.4611 32.8895 52.2562 32.8895 52.0035L32.8897 47.8964L36.9968 47.8962C37.2493 47.8961 37.4544 47.6918 37.4545 47.4397C37.4545 47.1858 37.2496 46.9832 36.9969 46.9832L32.8898 46.9835Z" fill="#484B4E"/>
</svg>
