<svg width="20" height="20" viewBox="0 0 20 20" fill="none" xmlns="http://www.w3.org/2000/svg">
<path d="M13.492 1.6665H6.50866C3.47533 1.6665 1.66699 3.47484 1.66699 6.50817V13.4832C1.66699 16.5248 3.47533 18.3332 6.50866 18.3332H13.4837C16.517 18.3332 18.3253 16.5248 18.3253 13.4915V6.50817C18.3337 3.47484 16.5253 1.6665 13.492 1.6665ZM7.05866 9.14984C7.30033 8.90817 7.70033 8.90817 7.94199 9.14984L9.37533 10.5832V5.42484C9.37533 5.08317 9.65866 4.79984 10.0003 4.79984C10.342 4.79984 10.6253 5.08317 10.6253 5.42484V10.5832L12.0587 9.14984C12.3003 8.90817 12.7003 8.90817 12.942 9.14984C13.1837 9.3915 13.1837 9.7915 12.942 10.0332L10.442 12.5332C10.3837 12.5915 10.317 12.6332 10.242 12.6665C10.167 12.6998 10.0837 12.7165 10.0003 12.7165C9.91699 12.7165 9.84199 12.6998 9.75866 12.6665C9.68366 12.6332 9.61699 12.5915 9.55866 12.5332L7.05866 10.0332C6.81699 9.7915 6.81699 9.39984 7.05866 9.14984ZM15.2003 14.3498C13.5253 14.9082 11.767 15.1915 10.0003 15.1915C8.23366 15.1915 6.47533 14.9082 4.80033 14.3498C4.47533 14.2415 4.30033 13.8832 4.40866 13.5582C4.51699 13.2332 4.86699 13.0498 5.20033 13.1665C8.30033 14.1998 11.7087 14.1998 14.8087 13.1665C15.1337 13.0582 15.492 13.2332 15.6003 13.5582C15.7003 13.8915 15.5253 14.2415 15.2003 14.3498Z" fill="url(#paint0_linear_1202_17246)"/>
<defs>
<linearGradient id="paint0_linear_1202_17246" x1="9.99617" y1="1.6665" x2="9.57919" y2="21.8709" gradientUnits="userSpaceOnUse">
<stop stop-color="#BEBEBE"/>
<stop offset="1" stop-color="white"/>
</linearGradient>
</defs>
</svg>
